<svg width="138" height="71" viewBox="0 0 138 71" fill="none" xmlns="http://www.w3.org/2000/svg">
<path d="M46.388 54L46.42 32.464C46.42 29.968 45.78 28.0267 44.5 26.64C43.22 25.232 41.5347 24.528 39.444 24.528C38.164 24.528 36.9907 24.8267 35.924 25.424C34.8787 26 34.0253 26.8747 33.364 28.048C32.724 29.2 32.404 30.6507 32.404 32.4L29.172 30.768C29.1293 28.336 29.6413 26.2027 30.708 24.368C31.796 22.5333 33.268 21.1147 35.124 20.112C36.98 19.088 39.06 18.576 41.364 18.576C45.0973 18.576 47.988 19.696 50.036 21.936C52.084 24.176 53.108 27.152 53.108 30.864L53.076 54H46.388ZM4.948 54V19.44H10.9V29.424H11.668V54H4.948ZM25.684 54L25.716 32.592C25.716 30.0747 25.076 28.1013 23.796 26.672C22.5373 25.2427 20.8413 24.528 18.708 24.528C16.596 24.528 14.8893 25.2533 13.588 26.704C12.308 28.1547 11.668 30.0533 11.668 32.4L8.468 30.352C8.468 28.0907 9.012 26.0747 10.1 24.304C11.188 22.5333 12.66 21.136 14.516 20.112C16.372 19.088 18.4733 18.576 20.82 18.576C23.2733 18.576 25.364 19.0987 27.092 20.144C28.82 21.168 30.132 22.608 31.028 24.464C31.9453 26.32 32.404 28.4747 32.404 30.928L32.372 54H25.684ZM80.9375 54V45.968H60.1375V39.632L75.1135 7.92H82.7615L67.7855 39.632H80.9375V27.152H87.7215V39.632H92.2975V45.968H87.7215V54H80.9375ZM114.22 70.32C112.364 70.32 110.561 70.032 108.812 69.456C107.084 68.88 105.505 68.0267 104.076 66.896C102.647 65.7867 101.463 64.4107 100.524 62.768L106.7 59.632C107.447 61.104 108.513 62.1813 109.9 62.864C111.287 63.5467 112.748 63.888 114.284 63.888C116.183 63.888 117.804 63.5467 119.148 62.864C120.492 62.2027 121.505 61.2 122.188 59.856C122.892 58.512 123.233 56.848 123.212 54.864V45.2H124.012V19.44H129.932V54.928C129.932 55.8453 129.9 56.72 129.836 57.552C129.772 58.384 129.655 59.216 129.484 60.048C128.993 62.3733 128.055 64.2933 126.668 65.808C125.303 67.3227 123.553 68.4533 121.42 69.2C119.308 69.9467 116.908 70.32 114.22 70.32ZM113.708 54.96C110.487 54.96 107.703 54.16 105.356 52.56C103.031 50.96 101.228 48.784 99.948 46.032C98.6893 43.2587 98.06 40.144 98.06 36.688C98.06 33.2107 98.7 30.1067 99.98 27.376C101.26 24.624 103.073 22.4587 105.42 20.88C107.788 19.28 110.593 18.48 113.836 18.48C117.1 18.48 119.841 19.28 122.06 20.88C124.3 22.4587 125.985 24.624 127.116 27.376C128.268 30.128 128.844 33.232 128.844 36.688C128.844 40.144 128.268 43.248 127.116 46C125.964 48.752 124.268 50.9387 122.028 52.56C119.788 54.16 117.015 54.96 113.708 54.96ZM114.636 48.912C116.833 48.912 118.625 48.3893 120.012 47.344C121.399 46.2987 122.412 44.8587 123.052 43.024C123.692 41.1893 124.012 39.0773 124.012 36.688C124.012 34.2987 123.681 32.1867 123.02 30.352C122.38 28.5173 121.377 27.088 120.012 26.064C118.668 25.04 116.951 24.528 114.86 24.528C112.641 24.528 110.817 25.072 109.388 26.16C107.959 27.248 106.892 28.7093 106.188 30.544C105.505 32.3787 105.164 34.4267 105.164 36.688C105.164 38.9707 105.505 41.04 106.188 42.896C106.892 44.7307 107.937 46.192 109.324 47.28C110.732 48.368 112.503 48.912 114.636 48.912Z" fill="white"/>
</svg>
